# xmcd
#
# Track frame offsets: 
#        150
#        41620
#        71016
#        100744
#        119599
#        142827
#        176064
#
# Disc length: 2635 seconds
#
# Revision: 7
# Processed by: cddbd v1.5.2PL0 Copyright (c) Steve Scherf et al.
# Submitted via: ExactAudioCopy v1.1
#
DISCID=5f0a4907
DTITLE=Howlin' Wolf, Muddy Waters and Bo Diddley - The Super Super Blues
DTITLE=Band
DYEAR=1968
DGENRE=Blues
TTITLE0=Long Distance Call (stereo)
TTITLE1=Ooh Baby - Wrecking My Love Life (stereo)
TTITLE2=Sweet Little Angel (stereo)
TTITLE3=Spoonful (stereo)
TTITLE4=Diddley Daddy (stereo)
TTITLE5=The Red Rooster (stereo)
TTITLE6=Goin' Down Slow (stereo)
EXTD=1992 Chess Records, Originally Checker LP 3010
EXTT0=
EXTT1=
EXTT2=
EXTT3=
EXTT4=
EXTT5=
EXTT6=
PLAYORDER=
